<svg xmlns="http://www.w3.org/2000/svg" width="91.031" height="104.15" id="google-play-movies-tv">
  <defs>
    <linearGradient id="a" x2="1" y1=".5" y2=".5" gradientUnits="objectBoundingBox">
      <stop offset="0" stop-color="#dd2231"></stop>
      <stop offset="1" stop-color="#c7223e"></stop>
    </linearGradient>
    <linearGradient id="b" x2="1" y1=".5" y2=".5" gradientUnits="objectBoundingBox">
      <stop offset="0" stop-color="#c81f44"></stop>
      <stop offset="1" stop-color="#bc1f45"></stop>
    </linearGradient>
  </defs>
  <g>
    <path fill="#811e56" d="M0 2.22A2.2 2.2 0 0 1 1.116.301a2.216 2.216 0 0 1 2.231 0l86.568 49.465a2.23 2.23 0 0 1 1.116 1.919 2.2 2.2 0 0 1-1.116 1.919L3.793 103.85a2.231 2.231 0 0 1-3.347-1.92Z"></path>
    <path fill="url(#a)" d="M119.683 210.8H46.1v31.392h37.149l36.457-21.263V210.8Zm-54.038 24.721H56.9v-4.574h8.724v4.574Zm0-13.3H56.9v-4.571h8.724v4.574Zm38.242 0v-4.571h8.724v4.574Z" transform="translate(-35.814 -163.778)"></path>
    <path fill="url(#b)" d="M119.683 69.6H46.1v31.392h73.583ZM65.645 93.183H56.9v-4.574h8.724v4.574Zm0-13.3H56.9v-4.571h8.724v4.574Zm46.966 13.3h-8.724v-4.574h8.724Zm0-13.3h-8.724v-4.571h8.724Z" transform="translate(-35.814 -54.082)"></path>
    <path fill="#fbfcfe" d="M21.084 21.229h8.724v4.574h-8.724Zm0 13.3h8.724v4.574h-8.724Zm46.988-13.3h8.724v4.574h-8.724Zm0 13.3h8.724v4.574h-8.724ZM21.084 53.871h8.724v4.574h-8.724Zm0 13.3h8.724v4.574h-8.724Zm46.988-13.3h8.724v4.574h-8.724Z"></path>
  </g>
</svg>
