<svg xmlns="http://www.w3.org/2000/svg" width="91.005" height="104.15" id="google-play-music">
  <g>
    <path fill="#f15a35" d="M0 2.222A2.212 2.212 0 0 1 1.114.296a2.244 2.244 0 0 1 2.228 0l86.55 49.47a2.222 2.222 0 0 1 0 3.852L3.805 103.854a2.244 2.244 0 0 1-2.228 0 2.212 2.212 0 0 1-1.114-1.926C.441 101.928 0 2.222 0 2.222Z"></path>
    <path fill="#fbcb1a" d="M72.859 52.156a34.875 34.875 0 1 0-39.678 34.55l37.265-21.788a34.682 34.682 0 0 0 2.413-12.762ZM37.984 74.664a22.508 22.508 0 1 1 22.508-22.508 22.5 22.5 0 0 1-22.508 22.508Z"></path>
    <path fill="#f78c1e" d="M37.985 29.672A22.508 22.508 0 1 0 60.493 52.18a22.5 22.5 0 0 0-22.508-22.508Zm12.136 17.565a8.313 8.313 0 0 0-4.826-3.04c-1.114-.232-2.228-.557-3.365-.859-.046 2.112-.046 4.269-.139 6.381q-.278 6.683-.6 13.365a5.965 5.965 0 0 1-5.114 5.688 8.072 8.072 0 0 1-8.562-3.2 5.731 5.731 0 0 1 3.016-9.049 8.5 8.5 0 0 1 6.8.627 3.535 3.535 0 0 1 .394.209c-.162-5.267-.325-10.442-.51-15.593a19.321 19.321 0 0 0-.255-2.3 10.622 10.622 0 0 1 .325-4.246c.812.7 1.578 1.346 2.32 2.019a9.718 9.718 0 0 0 5.406 2.39 9.338 9.338 0 0 1 4.919 2.32 3.279 3.279 0 0 1 1.346 2.808c0 1.346.162 2.692.278 4.2-.534-.673-1-1.183-1.439-1.717Z"></path>
    <path fill="#fff" fill-rule="evenodd" d="M49.958 41.923a9.515 9.515 0 0 0-4.919-2.32 9.648 9.648 0 0 1-5.406-2.39c-.743-.673-1.508-1.3-2.32-2.019a10.622 10.622 0 0 0-.325 4.246 19.321 19.321 0 0 1 .255 2.3c.186 5.174.325 10.326.51 15.593a2.83 2.83 0 0 1-.394-.209 8.5 8.5 0 0 0-6.8-.626 5.738 5.738 0 0 0-3.016 9.049 8.1 8.1 0 0 0 8.562 3.2 5.965 5.965 0 0 0 5.1-5.685c.209-4.455.441-8.91.6-13.365.093-2.135.093-4.269.139-6.381 1.137.3 2.228.626 3.365.859a8.131 8.131 0 0 1 4.826 3.04c.441.534.9 1.044 1.462 1.694-.116-1.531-.278-2.854-.278-4.2a3.345 3.345 0 0 0-1.369-2.784Z"></path>
  </g>
</svg>
